<svg xmlns="http://www.w3.org/2000/svg" xmlns:xlink="http://www.w3.org/1999/xlink" id="图层_1" width="221.1" height="48.19" x="0" y="0" enable-background="new 0 0 221.1 48.19" version="1.1" viewBox="0 0 221.1 48.19" xml:space="preserve"><g><g><g><path fill="#36B6AC" fill-rule="evenodd" d="M56.709,45.901v-4.591c2.301-0.422,3.449-1.78,3.449-4.07 V20.781c0-1.47-0.76-2.205-2.281-2.205h-1.168v-4.702h2.465c1.928,0,3.318,0.371,4.184,1.114c0.977,0.84,1.469,2.326,1.469,4.452 v18.223c0,2.343,1.297,3.519,3.891,3.519h34.697v4.72H69.252c-1.701,0-3.113-0.239-4.227-0.718 c-0.779-0.334-1.617-0.925-2.506-1.755c-0.951,0.847-1.801,1.451-2.561,1.808C59.113,45.632,58.033,45.85,56.709,45.901z" clip-rule="evenodd"/><path fill="#36B6AC" fill-rule="evenodd" d="M94.52,13.165h4.711l1.063,15.854 c0.123,1.771,0.477,2.931,1.064,3.467c0.389,0.354,1.027,0.561,1.928,0.63v4.607c-2.041-0.051-3.717-0.674-5.014-1.876 c-1.521-1.382-2.369-3.336-2.533-5.86L94.52,13.165z" clip-rule="evenodd"/><path fill="#36B6AC" fill-rule="evenodd" d="M68.086,37.723l-0.025-4.253 c0.967-0.519,1.535-1.494,1.676-2.931l1.709-17.374h4.201l-1.813,17.624c-0.197,1.928-0.752,3.465-1.693,4.608 C71.387,36.312,70.031,37.082,68.086,37.723z" clip-rule="evenodd"/><path fill="#36B6AC" fill-rule="evenodd" d="M68.061,10.563V5.895h15.273V2.783h4.686v3.111h15.266v4.668 H92.877v21.826c0,1.799-0.406,3.146-1.211,4.046c-0.795,0.873-2.117,1.306-3.975,1.287l-3.727-0.024v-4.677l2.689,0.025 c0.465,0.018,0.82-0.06,1.063-0.233c0.371-0.251,0.553-0.795,0.553-1.643V10.563h-5.086L83.074,30.06 c-0.012,2.423-1.096,4.299-2.602,5.646c-1.434,1.281-3.26,1.945-5.471,1.996v-4.607c1.244-0.042,2.135-0.455,2.678-1.209 c0.416-0.577,0.842-1.515,0.84-2.862l-0.047-18.46H68.061z" clip-rule="evenodd"/><rect width="8.818" height="4.875" x="56.709" y="2.706" fill="#36B6AC" fill-rule="evenodd" clip-rule="evenodd"/></g><path fill="#36B6AC" fill-rule="evenodd" d="M40.434,36.564h4.684c0.096,1.72,0.277,2.982,0.529,3.769 c0.154,0.441,0.535,0.727,1.141,0.865v4.606c-1.686-0.104-3.078-0.674-4.176-1.72c-0.848-0.795-1.391-1.884-1.65-3.268 C40.709,39.435,40.537,38.017,40.434,36.564z" clip-rule="evenodd"/><path fill="#36B6AC" fill-rule="evenodd" d="M21.105,45.805v-4.633c0.57-0.069,0.984-0.371,1.244-0.908 c0.25-0.527,0.379-1.46,0.379-2.817c0-0.182-0.008-0.476-0.025-0.882h4.582c-0.217,3.44-0.674,5.671-1.365,6.682 C24.891,44.803,23.283,45.658,21.105,45.805z" clip-rule="evenodd"/><rect width="3.891" height="27.514" x="14.033" y="18.291" fill="#36B6AC" fill-rule="evenodd" clip-rule="evenodd"/><rect width="17.695" height="4.719" x=".229" y="2.705" fill="#36B6AC" fill-rule="evenodd" clip-rule="evenodd"/><polygon fill="#36B6AC" fill-rule="evenodd" points=".229 14.945 .229 10.295 17.924 10.295 17.924 14.997 11.752 14.945 11.752 45.805 7.084 45.805 7.084 14.945" clip-rule="evenodd"/><path fill="#36B6AC" fill-rule="evenodd" d="M0.229,45.805v-3.596c0.088,0.026,0.148,0.043,0.182,0.043 c0.477,0,0.709-0.588,0.709-1.763V18.291h3.578v21.618c0,1.859-0.25,3.173-0.76,3.951C3.195,45.01,1.959,45.658,0.229,45.805z" clip-rule="evenodd"/><path fill="#36B6AC" fill-rule="evenodd" d="M46.787,10.07v-4.72h-2.309V2.705l-4.711,0.052v2.594h-11.66 V2.705h-4.686v2.646h-2.316v4.72h2.316V30.35h-2.316v4.72h25.682v-4.72h-2.309V10.07H46.787z M39.768,30.35h-11.66v-3.683h11.66 V30.35z M39.768,21.999h-11.66v-3.683h11.66V21.999z M39.768,13.598h-11.66V10.07h11.66V13.598z" clip-rule="evenodd"/></g><path fill="#FFF" d="M123.567,28.256c-2.811,0-5.13-0.019-6.881-0.019l0.027-1.1c1.841,0.018,4.381-0.005,7.655-0.005 c0.961-1.437,1.601-2.637,1.921-3.6c0.747,0.352,2.338-0.04,2.216,0.688c-0.029,0.173-0.451,0.468-0.779,0.838 c-0.398,0.447-0.609,0.775-1.57,2.074h6.966c1.798,0,3.577-0.009,5.418,0.046v1.066c-1.923-0.051-3.62,0.011-5.418,0.011h-7.766 c-1.513,2.079-2.989,3.921-4.431,5.525h6.512v-1.329c0-1.193-0.035-2.003-0.123-2.553c0.337,0.061,0.995,0.03,1.991,0.03 c0.284,0-0.017,0.645-0.062,0.806c-0.044,0.16-0.152,0.555-0.152,0.983v2.063c3.861,0,6.389-0.053,7.58-0.16v1.272 c-1.245-0.106-3.771,0.065-7.58,0.034v3.554c3.542-0.015,6.948-0.069,10.223,0.004v1.101c-3.34,0.082-6.681,0.104-10.223,0.088 v1.697c0,1.192,0.063,2.246,0.188,3.164h-2.028c0.124-0.826,0.187-1.88,0.187-3.164v-1.697c-4.501,0-8.288,0.049-11.637-0.033 v-1.177c3.403,0.052,7.153,0.018,11.637,0.018v-3.554c-2.828,0-4.809,0.016-5.938,0.046c-1.13,0.031-2.528,0.016-2.528,0.016 s-0.063-0.642-0.384-1.177c0.693-0.106,1.159-0.73,1.951-1.625C121.33,31.294,122.34,29.983,123.567,28.256z"/><path fill="#FFF" d="M145.293,27.66c-0.891,0.016-1.793-0.059-2.829-0.03v-1.136c1.444-0.014,2.5,0.004,3.229,0.02 c0.392-1.146,0.658-2.293,0.802-3.439c0.551,0.261,1.138,0.451,1.761,0.573c0.178,0.046,0.267,0.13,0.267,0.252 c0,0.123-0.066,0.219-0.199,0.287c-0.134,0.068-0.268,0.229-0.4,0.481c-0.134,0.252-0.396,0.875-0.788,1.868 c1.744,0,3.218,0.028,4.404,0.028v1.038c-0.68,0.024-2.305,0.011-4.83,0.011l-2.109,5.229h2.722c0-2.109-0.035-3.271-0.106-3.485 c0.642,0.123,0.96,0.179,1.565,0.179c0.142,0,0.01,0.586,0.01,0.922v2.361c1.369-0.016,2.19-0.017,2.638-0.017l-0.02,1.121 c-0.694-0.075-1.568,0.042-2.618,0.042v3.232c1.547-0.198,2.535-0.39,2.962-0.572c-0.036,0.198-0.054,0.421-0.054,0.664 c0,0.245,0.044,0.505,0.134,0.78c-0.623-0.046-1.637,0.038-3.042,0.252c0,2.537-0.103,4.601,0.058,6.19h-1.628 c0.161-1.62,0.102-3.607,0.102-5.962c-2.206,0.337-3.852,0.681-4.938,1.032c-0.035-0.642-0.213-1.215-0.533-1.719 c1.673-0.031,3.496-0.185,5.471-0.459v-3.439c-2.331,0.016-3.7-0.13-4.286,0.068c-0.144-0.55-0.34-0.802-0.659-1.138 C143.247,32.544,144.136,30.84,145.293,27.66z M156.769,26.49c-1.744,0-3.202-0.01-4.483-0.078v-1.229 c1.031,0.137,3.292,0.206,6.778,0.206c3.487,0,5.88-0.069,7.18-0.206v1.283c-1.405,0.027-2.909,0.055-4.671,0.023 c-0.035,1.544-0.07,2.698-0.106,3.463c1.868,0,3.193-0.047,3.977-0.138c-0.054,0.564-0.08,1.375-0.08,2.43v9.813 c0,0.581-0.09,1.001-0.267,1.262c-0.179,0.259-0.538,0.45-1.081,0.572s-1.207,0.074-2.487,0.166 c0.017-0.137,0.205-0.964-0.15-1.423c0.783,0.122,0.786,0.042,1.223,0.042c0.436,0,0.752-0.104,0.948-0.31 c0.195-0.207,0.293-0.737,0.293-1.594v-2.889l-1.095,0.619c-0.747-1.528-1.369-2.645-1.867-3.348 c-0.285,1.483-0.907,3.126-1.868,4.93c-0.445-0.261-0.988-0.404-1.628-0.436c0.854-1.102,1.458-2.216,1.813-3.348l-1.014,0.459 c-0.267-0.811-0.586-1.438-0.961-1.88c-0.373,1.573-0.986,3.201-1.842,4.883c-0.516-0.26-0.996-0.42-1.44-0.481v5.09h-1.574 c0.123-0.779,0.187-1.544,0.187-2.293v-9.813c0-0.916-0.044-1.727-0.133-2.43c0.836,0.076,2.224,0.115,4.163,0.115 C156.688,28.653,156.751,27.499,156.769,26.49z M153.939,38.917c0.836-1.223,1.433-2.411,1.788-3.565 c0.355-1.153,0.613-2.563,0.774-4.23h-2.563V38.917z M157.81,31.121c-0.071,0.857-0.179,1.667-0.321,2.431 c0.766,0.902,1.371,1.713,1.816,2.431c0.391-1.177,0.648-2.797,0.772-4.861H157.81z M160.186,26.49h-2.136 c-0.018,1.238-0.071,2.393-0.16,3.463h2.241C160.186,28.807,160.202,27.652,160.186,26.49z M161.386,31.121 c-0.089,1.146-0.178,2.072-0.267,2.774c0.961,1.102,1.868,2.286,2.722,3.555v-6.329H161.386z"/><path fill="#FFF" d="M173.982,25.573c3.968-0.015,6.183-0.106,6.646-0.274v1.467c-0.569-0.106-1.966-0.161-4.19-0.161 c0.392,0.658,0.828,1.469,1.309,2.431l-1.541,0.25c-0.1-0.656-0.588-1.472-1.155-2.681l-1.991-0.04 c-0.783,0.811-1.771,1.684-2.839,2.539c-0.374-0.427-0.676-0.811-1.21-0.979c2.063-1.146,3.409-2.523,4.495-4.587 c0.605,0.382,1.136,0.464,1.438,0.533c0.303,0.068,0.304,0.221,0.204,0.322C175.077,24.463,174.588,24.963,173.982,25.573z M180.761,30.067c-0.373-0.535-0.836-1.001-1.388-1.398l1.095-0.826c0.694,0.719,1.352,1.46,1.975,2.225 c4.591,0,9.398-0.085,9.398-0.085s0.077,2.873,0.096,3.593h-1.647V31.1h-18.815v2.544h-1.788c-0.013-1.171,0-3.737,0-3.737 S175.371,30.067,180.761,30.067z M175.157,38.436h6.432c2.544,0,5.083-0.028,7.788-0.09c-0.089,0.245,0.056,5.276,0.097,5.85 l-1.772-0.004v-1.193h-12.544c0.035,0.703-0.045,1.223-0.033,1.56h-1.669c0.065-0.88,0.074-9.79,0.074-9.79 c0-1.131-0.006-2.243-0.006-2.243s4.667,0.088,7.425,0.088s7.072-0.092,7.072-0.092v4.356c0,0-3.799-0.114-6.592-0.114h-6.271 V38.436z M175.157,35.685h11.183v-1.972h-11.183V35.685z M187.701,41.875v-2.361h-12.544v2.361H187.701z M186.1,26.651h-1.948 c-0.552,0.764-1.095,1.452-1.628,2.063c-0.392-0.413-0.863-0.673-1.415-0.779c1.726-1.498,2.855-3.034,3.39-4.609 c0.604,0.291,1.071,0.493,1.401,0.607c0.328,0.115,0.305,0.227,0.305,0.317c0,0.092-0.817,0.741-1.332,1.414 c4.323-0.015,6.832-0.075,7.579-0.183v1.177c-0.569,0.031-2.153-0.008-4.911-0.008c0.623,1.07,1.05,1.819,1.281,2.246l-1.591,0.374 C187.105,28.6,186.615,27.782,186.1,26.651z"/><path fill="#FFF" d="M199.311,26.376c-1.495,0-2.724,0.042-3.764,0.022l0.001-1.053c1.178,0.015,7.51,0.022,8.699-0.027v1.039 c-0.889,0.027-2.027,0.033-3.362,0.019v5.182c1.299,0,2.365,0.037,3.096-0.029v1.149c-0.8,0.014-1.833,0.003-3.096,0.003v6.236 c1.21-0.29,3.248-0.886,3.248-0.886l0.141,1.275l-8.538,2.277l-0.636-1.331c0,0,2.164-0.51,4.211-0.969v-6.626 c-1.371,0-2.464,0.028-3.337,0.006v-1.122c0.805,0.031,1.931,0.016,3.337,0.016V26.376z M212.334,38.528v3.76 c3.131-0.016,7.606-0.021,7.606-0.021v1.351c0,0-4.606,0-8.361,0c-3.754,0-8.64,0-8.64,0v-1.323c0,0,5.008-0.006,7.873-0.006v-3.76 c-2.455,0.015-5.845,0.045-5.845,0.045v-1.204c0,0,3.639,0.066,5.845,0.081v-2.729c-2.775,0.016-5.497,0.021-5.497,0.021v-9.927 h12.57l0.025,9.913c0,0-2.553-0.008-5.577-0.008v2.729c2.58-0.015,5.979-0.013,5.979-0.013v1.081 C218.313,38.519,214.7,38.543,212.334,38.528z M210.813,29.494v-3.302h-3.924v3.302H210.813z M210.813,33.621v-3.049h-3.924v3.049 H210.813z M212.334,26.192v3.302h3.95v-3.302H212.334z M212.334,30.572v3.049h3.95v-3.049H212.334z"/><g><path fill="#36B6AC" d="M220,19.471c0,0-8.293-4.96-12.033-7.92c-3.227-2.551-10.14-6.26-25.182-6.537 c-2.41-0.044-4.994,0-7.837,0.149c-20.579,1.092-12.519,0.935-12.519,0.935s11.487-0.311,15.726-0.362 c4.237-0.053,22.201,1.298,29.186,6.282c6.984,4.985,8.484,7.01,9.169,7.063c0.687,0.052-35.546-2.597-37.168-2.181 c0,0,31.658,4.153,40.658,3.323V19.471z"/><path fill="#36B6AC" d="M188.699,13.571c0,0,20.294,3.978,21.701,4.575c1.406,0.596-3.125-6.516-10.851-8.828 c-7.726-2.313-11.225-2.389-11.974-1.973c-0.748,0.414-8.106,8.308-8.106,8.308l2.743,0.208l5.987-7.789 c0,0,9.25-1.287,18.479,7.254C206.679,15.326,189.323,13.465,188.699,13.571z"/><path fill="#36B6AC" d="M176.851,6.41c0,0,7.11,0.129,6.486,0.74c-0.625,0.61-7.733,7.361-7.733,7.361l-23.447-0.94 c0,0-32.178,0.213-35.92,2.187c0,0,55.75-0.623,58.244-0.208c0,0-0.871-0.415-0.124,0.623c0.749,1.038,6.735-4.673,10.851-9.763 C185.207,6.41,177.973,6.203,176.851,6.41z"/><path fill="#36B6AC" d="M158.768,6.863c0,0-12.784,3.766-13.533,4.908c-0.748,1.143-0.904,0.535-0.904,0.535L149.661,13h-10.226 C139.436,13,147.285,7.961,158.768,6.863z"/><path fill="#040000" d="M209.097,20.958"/></g><text fill="#36B6AC" font-family="'MicrosoftYaHei'" font-size="7.948" transform="matrix(1 0 0 1 105.0811 7.1611)">TM</text></g></svg>